<svg width="34" height="30" viewBox="0 0 34 30" fill="none" xmlns="http://www.w3.org/2000/svg">
<path fill-rule="evenodd" clip-rule="evenodd" d="M0.606867 0.137954C0.427494 0.222502 0.216569 0.40327 0.138053 0.539805C-0.0545279 0.874653 -0.0443362 1.43107 0.160556 1.76739C0.447715 2.23894 0.64054 2.27256 3.05432 2.27256C5.42293 2.27256 5.58869 2.30088 5.81298 2.74321C5.87528 2.86587 6.16904 3.99454 6.4659 5.25135C6.76276 6.50815 7.17206 8.23422 7.37548 9.08705C7.57891 9.93988 7.83565 11.0233 7.94597 11.4946C8.05628 11.9659 8.42342 13.4899 8.76187 14.8814C9.10023 16.2729 9.43288 17.6684 9.50104 17.9826C9.86623 19.6657 10.6152 22.6415 10.7293 22.8625C10.8228 23.0433 10.8335 23.126 10.7663 23.1484C10.5288 23.2276 9.86337 23.8371 9.63117 24.188C9.07128 25.0341 8.83606 26.2007 9.04585 27.0911C9.48881 28.971 11.2966 30.2435 13.1225 29.9607C14.3685 29.7677 15.4127 29.0131 15.9556 27.9136C16.2273 27.3633 16.2594 27.2278 16.2882 26.5097C16.3103 25.9589 16.2825 25.5866 16.1977 25.2968L16.0752 24.8787H20.2332C24.0417 24.8787 24.3868 24.8899 24.3402 25.0116C24.1729 25.4479 24.1117 25.9485 24.1478 26.5834C24.1809 27.1642 24.2368 27.3994 24.4463 27.8388C24.9839 28.9662 26.022 29.7497 27.2479 29.9531C28.7277 30.1985 30.3102 29.41 30.997 28.0848C31.3779 27.35 31.4989 26.7958 31.4455 26.0302C31.3309 24.3856 30.1728 23.0569 28.5547 22.7137C28.0984 22.6169 26.7462 22.5962 20.8026 22.595C13.0241 22.5935 13.396 22.6141 12.973 22.1607C12.819 21.9957 12.399 20.7054 12.39 20.3697C12.3891 20.336 16.3424 20.3085 21.175 20.3085H29.9616L30.2629 20.1036C30.5079 19.9369 30.5943 19.801 30.7254 19.3764C30.814 19.0892 30.9264 18.6337 30.9753 18.3642C31.0241 18.0947 31.1163 17.6966 31.1801 17.4796C31.244 17.2625 31.5527 16.0015 31.8662 14.6774C32.1797 13.3532 32.7684 10.8782 33.1746 9.17723C33.5807 7.47622 33.913 6.01229 33.913 5.9239C33.913 5.70094 33.6109 5.18459 33.3973 5.04267C33.2455 4.9418 31.4596 4.91903 20.9576 4.8841L8.69525 4.8433L8.37679 3.49982C8.17108 2.6323 7.96831 1.98749 7.80443 1.67966C7.48098 1.07215 6.83459 0.480229 6.22228 0.230663C5.7608 0.0426326 5.6562 0.0346346 3.33822 0.00990656C1.12109 -0.0137605 0.907478 -0.00372238 0.606867 0.137954ZM15.0794 7.1896C15.0797 7.24575 15.1341 7.9343 15.2003 8.7198C15.4353 11.5088 15.4313 11.413 15.3116 11.413C15.2509 11.4131 14.1018 11.4168 12.758 11.4213C10.4538 11.4289 10.3112 11.4208 10.2513 11.2783C10.1687 11.0823 9.29012 7.35878 9.29012 7.20494C9.29012 7.10505 9.72143 7.08759 12.1845 7.08759C14.4454 7.08759 15.079 7.10995 15.0794 7.1896ZM23.1982 7.43713C23.1744 7.62638 23.0946 8.58922 23.0207 9.57671C22.947 10.5642 22.8781 11.382 22.8677 11.394C22.8366 11.43 17.7544 11.425 17.7184 11.389C17.6907 11.3613 17.3634 7.50315 17.3623 7.19115C17.362 7.11338 18.0273 7.09093 20.3016 7.09183L23.2415 7.09297L23.1982 7.43713ZM31.304 7.1665C31.304 7.27831 30.3249 11.3592 30.2896 11.3946C30.2427 11.4415 25.2536 11.4232 25.2063 11.3758C25.161 11.3304 25.4097 7.69738 25.4846 7.31202L25.5281 7.08759H28.416C30.221 7.08759 31.304 7.11721 31.304 7.1665ZM15.7728 15.8748L15.9367 18.0108L15.732 18.0433C15.4471 18.0885 11.9145 18.066 11.8672 18.0186C11.808 17.9594 10.8392 13.959 10.8392 13.7739C10.8392 13.7251 11.7404 13.7038 13.2241 13.7172L15.6089 13.7389L15.7728 15.8748ZM22.6615 13.9482C22.6615 14.2766 22.4322 17.2304 22.3721 17.6766L22.3253 18.0234H20.2666H18.2078L18.0429 15.9219C17.9523 14.7661 17.8925 13.793 17.9101 13.7593C17.9278 13.7255 19.004 13.698 20.3019 13.698H22.6615V13.9482ZM29.7139 13.9225C29.6241 14.2664 29.1992 16.0826 28.9777 17.0697C28.8688 17.5551 28.764 17.9776 28.7448 18.0086C28.712 18.0618 24.7067 18.0574 24.6534 18.0041C24.6395 17.9903 24.6983 17.1167 24.7839 16.0629C24.8696 15.0091 24.9408 14.0459 24.9421 13.9225L24.9444 13.698H27.3585H29.7726L29.7139 13.9225ZM13.2648 25.0518C14.0792 25.4464 14.3198 26.4921 13.7602 27.2042C13.5426 27.481 13.0128 27.7309 12.6383 27.7333C11.8928 27.7381 11.2469 27.0778 11.2469 26.3108C11.2469 25.7482 11.5036 25.336 12.0118 25.0825C12.5112 24.8334 12.7995 24.8263 13.2648 25.0518ZM28.2001 24.9587C28.7642 25.1207 29.1841 25.6955 29.1841 26.3061C29.1841 27.3728 28.0889 28.0464 27.1506 27.5568C26.7231 27.3337 26.5099 27.066 26.4098 26.627C26.2655 25.9937 26.5779 25.342 27.1654 25.0509C27.5501 24.8603 27.7845 24.8394 28.2001 24.9587Z" fill="white"/>
</svg>
